<svg id="Layer_13" data-name="Layer 13" xmlns="http://www.w3.org/2000/svg" viewBox="0 0 293.68 54.12"><defs><style>.cls-1{fill:#fff;}</style></defs><title>BangkokPost</title><path class="cls-1" d="M89,111.86a7.15,7.15,0,0,1,1.33,4.34,10.37,10.37,0,0,1-1.7,5.69A19.24,19.24,0,0,1,83.37,127v-7H82.25v24.21a19.49,19.49,0,0,0-6.72-1.14,25.93,25.93,0,0,0-4.48.42A38.29,38.29,0,0,0,77,138.82a8.69,8.69,0,0,0,2-3.27,18.14,18.14,0,0,0,.51-5v-12.3a20.29,20.29,0,0,1,.38-4.73,5.62,5.62,0,0,1,1.34-2.42A15.34,15.34,0,0,1,85,108.63,11.27,11.27,0,0,1,89,111.86ZM80.8,106a24.58,24.58,0,0,1-4.86,1.09,24,24,0,0,1-3.17.22,16.9,16.9,0,0,1-4.94-.7,18.46,18.46,0,0,0-4.47-.89,6,6,0,0,0-3.43,1.12,7.58,7.58,0,0,0-2.55,2.87,5.71,5.71,0,0,0-.68,3h0a5.69,5.69,0,0,1,1.93-2,3.66,3.66,0,0,1,2.27-.45,7.79,7.79,0,0,1,1.79.36,15.57,15.57,0,0,0,4.12.73,15,15,0,0,0,5.69-1.11,30.49,30.49,0,0,0-4.8,4.21,10,10,0,0,0-1.9,3.58,25.67,25.67,0,0,0-.64,6.17,21,21,0,0,0-2.37-.17,5.66,5.66,0,0,0-4.23,1.7,7.3,7.3,0,0,0-1.92,4.56v.18a8.6,8.6,0,0,1,1.62-1.68,6.07,6.07,0,0,1,3-.85,3.7,3.7,0,0,1,3.45,2.13,9.63,9.63,0,0,1,.75,4.27h-.9A5,5,0,0,0,60.79,136a6.19,6.19,0,0,0-1.72,4.13,5.61,5.61,0,0,0,0,.58l.06.34a4.58,4.58,0,0,1,1.9-2.58,3.76,3.76,0,0,1,2-.5,2.38,2.38,0,0,1,1.85.89,3.16,3.16,0,0,1,.76,2.18,5.33,5.33,0,0,1-.66,2.4,25.28,25.28,0,0,1-3,4.06,22.69,22.69,0,0,0-3.06,4.28,6.19,6.19,0,0,0-.71,2.64,3.15,3.15,0,0,0,.61,1.94,2.6,2.6,0,0,0,1.35,1,2.23,2.23,0,0,0,2-.27,1,1,0,0,0,.14-1.46.93.93,0,0,0-.14-.14c-.61-.4-.89.14-1.79-.8a3.71,3.71,0,0,1-.28-2.41,4.83,4.83,0,0,1,2-2.81c1.84-1.44,4.24-2,7.27-2a19,19,0,0,1,7,1.26,15.7,15.7,0,0,1,4.25,2.55,27,27,0,0,1,15.68-7.44V133.43a13.92,13.92,0,0,0-.65-5A5.24,5.24,0,0,0,93.35,126a12.91,12.91,0,0,0-5-1.32,28,28,0,0,0,5.54-6.16,10,10,0,0,0,1.52-5,7.88,7.88,0,0,0-1.93-5.26,8.41,8.41,0,0,0-4-2.46q-8.36,3-10.88,4.77a9.35,9.35,0,0,0-3.4,4.35c-.6,1.7-.9,4.6-.9,8.73v8.85q0,5-1.57,7.59t-6.12,4.83a17.79,17.79,0,0,0,3.11-5.12,20.43,20.43,0,0,0,.77-6.27V121.09a15,15,0,0,1,1.94-8,22.18,22.18,0,0,1,7.16-6.27c.59-.34.95-.52,1.34-.73Zm6.39,19.62a8.19,8.19,0,0,1,3,2.37c.77,1,.8,2.74.8,4.05H83.37v-3.63Q84.39,127.78,87.19,125.63Zm-3.82,12.3v-4.74H91v4.74Zm2.09,8a14.5,14.5,0,0,0-2.09-1.29V139.1H91v4.41a24.65,24.65,0,0,0-5.54,2.5Z" transform="translate(-56.69 -105.73)"/><path class="cls-1" d="M105.76,131.35l-3.17-7.54,8.88,3.07v7.48ZM117,122.59a1.32,1.32,0,0,1-.82.22,11.9,11.9,0,0,1-3.44-.75,18.29,18.29,0,0,1-4.14-2,6.91,6.91,0,0,1-5.37,2.75,12.63,12.63,0,0,1-1.5-.12l-.36.83,3.12,7.48a33.49,33.49,0,0,0-4.39,7.16,12.74,12.74,0,0,0-1,5q0,4,4.47,8l7.82-7a9.93,9.93,0,0,0,.75,3.88,11,11,0,0,0,2.69,3.14l5.78-5.37-.57-1c-.68.61-1.08,1-1.22,1.06a1.34,1.34,0,0,1-.65.17,1.23,1.23,0,0,1-1-.77,10.36,10.36,0,0,1-.43-3.87V129a13.47,13.47,0,0,1,.38-3.52A19.07,19.07,0,0,1,119,121.7l-.9-.4A5.74,5.74,0,0,1,117,122.59Zm-9.49,23.73a9.61,9.61,0,0,1-3.81-7.81,16.92,16.92,0,0,1,1.47-6.26l6.26,3.3v7.16Z" transform="translate(-56.69 -105.73)"/><path class="cls-1" d="M130,126.82,137.6,120l4.26,4.48,2.51-2.75.73.79a11,11,0,0,0-2.21,2.83,9.69,9.69,0,0,0-.51,3.58v13.85a5.76,5.76,0,0,0,.54,2.86c.23.41.48.62.75.62s.81-.38,1.71-1.14l.63.9-5.59,5.14a10.2,10.2,0,0,1-2.76-3.26,12.69,12.69,0,0,1-.61-4.58v-16.1l-2.83-2.75-4.2,3.77v16.64l1.87,2.1-4.59,4.18L122.67,147l2-2.1V130a10.65,10.65,0,0,0-.57-4.3c-.26-.51-.55-.76-.89-.76a3,3,0,0,0-1.56.89l-.62-.81,5.52-5a11.27,11.27,0,0,1,2.86,2.86,6.26,6.26,0,0,1,.57,2.92Z" transform="translate(-56.69 -105.73)"/><path class="cls-1" d="M157.79,146.61l-3.86-3.16V124.3l7.16,2.75v15.21Zm-9.13-22.31v21.17l6.13,5-6.13,8.05.36,1a27.66,27.66,0,0,1,7.91-1.37,13.91,13.91,0,0,1,3,.34,20.56,20.56,0,0,1,3.32,1c3.4-1.78,5.49-3.11,6.26-4a3.94,3.94,0,0,0,1.18-2.68q0-1.41-2.25-4.66a12,12,0,0,1-1.82-3.4,18.13,18.13,0,0,1-.34-4.35V127.11l4.67,1v-6.57l-4.82,2.74L158.1,120A26.63,26.63,0,0,1,148.66,124.3Zm14,24.82a31.49,31.49,0,0,0,4.75,6l-1.07.76a17.42,17.42,0,0,0-3.85-1.7,13.33,13.33,0,0,0-3.77-.55,31.15,31.15,0,0,0-5.45.61L161,144.15A13.84,13.84,0,0,0,162.62,149.12Z" transform="translate(-56.69 -105.73)"/><path class="cls-1" d="M179.33,137.78V130l4.69-5.12,3.85,4.7Zm-.14-27.41a13.6,13.6,0,0,0-3.22,2.68,13.73,13.73,0,0,0-2-1.85,7.16,7.16,0,0,0-2.63-1v.09a4.56,4.56,0,0,1,1.85,2.15,9.91,9.91,0,0,1,.78,2.3,18.76,18.76,0,0,1,.21,3.51v21.21a21.46,21.46,0,0,1-.33,4.93,4.24,4.24,0,0,1-1.51,1.89v.56a16.94,16.94,0,0,1,3.65,1.79,17.65,17.65,0,0,1,3,2.68l7.34-6.6a16.1,16.1,0,0,0,.78,4,8.28,8.28,0,0,0,1.59,2.6l6-5-.49-.94a5.14,5.14,0,0,1-1.71,1.2c-.19,0-.4-.19-.62-.55a19.39,19.39,0,0,1-.9-4.25,18.29,18.29,0,0,0-1.6-5.62,11.61,11.61,0,0,0-3.07-3.58l6-5.93L187,120l-7.73,8.44v-10a15.05,15.05,0,0,1,.67-5.25,7.14,7.14,0,0,1,2.91-3.71v-.13A10.85,10.85,0,0,0,179.19,110.37Zm7,32.87-3.78,3.52-3.06-2.4V139.3l3.06-3q3.12,2.09,3.78,7Z" transform="translate(-56.69 -105.73)"/><path class="cls-1" d="M225.84,137.78V130l4.7-5.12,3.84,4.7Zm-.14-27.41a13.35,13.35,0,0,0-3.21,2.68,13.8,13.8,0,0,0-2-1.85,7.16,7.16,0,0,0-2.63-1v.09a4.51,4.51,0,0,1,1.85,2.15,9.32,9.32,0,0,1,.78,2.3,19.65,19.65,0,0,1,.22,3.51v21.21a20.92,20.92,0,0,1-.34,4.93,4.27,4.27,0,0,1-1.53,1.88v.56a15.17,15.17,0,0,1,6.69,4.41l7.35-6.6a16.1,16.1,0,0,0,.78,4,8.48,8.48,0,0,0,1.58,2.6l6-5-.5-.94a5.24,5.24,0,0,1-1.71,1.2c-.19,0-.4-.19-.62-.55a19.39,19.39,0,0,1-.9-4.25,18.63,18.63,0,0,0-1.59-5.62,11.78,11.78,0,0,0-3.08-3.58l6-5.93L233.56,120l-7.73,8.44v-10a15.05,15.05,0,0,1,.67-5.25,7.14,7.14,0,0,1,2.91-3.71v-.13A10.9,10.9,0,0,0,225.7,110.37Zm7,32.87-3.78,3.52-3.06-2.4V139.3l3.06-3Q232,138.35,232.68,143.24Z" transform="translate(-56.69 -105.73)"/><path class="cls-1" d="M205.11,125.68q1.32.52,4.47,2.19v18.6l-6.76-3.14V125A11.46,11.46,0,0,1,205.11,125.68Zm.62-5.65a23.44,23.44,0,0,1-8.12,5.06v16a10.94,10.94,0,0,1-.37,3.37,4.5,4.5,0,0,1-1.24,1.69l.26.59a12.56,12.56,0,0,1,4.23.9,34.56,34.56,0,0,1,6.26,3.57,14.69,14.69,0,0,1,2.55-2.1,45.34,45.34,0,0,1,5.62-2.92V124.3A27.27,27.27,0,0,1,205.73,120Z" transform="translate(-56.69 -105.73)"/><path class="cls-1" d="M273.51,111.21a35.15,35.15,0,0,1,6.27,4.36,10.59,10.59,0,0,1,2.77,3.69,35.22,35.22,0,0,1,.67,7H270.15V113.8Zm-7.68,4.3a11.53,11.53,0,0,0-.9-4.67,6.87,6.87,0,0,0-2.76-2.89,8.64,8.64,0,0,0-8.2-.23,7.7,7.7,0,0,0-3.09,3.58l.18.25a6,6,0,0,1,4-1.53,5.26,5.26,0,0,1,3,.9,4.52,4.52,0,0,1,1.84,2.27,13.31,13.31,0,0,1,.5,4.3v2.11l-6.67,5.06a36.86,36.86,0,0,1-4.73,3v.2a7.37,7.37,0,0,1,1.61.3,17.12,17.12,0,0,1,5.75,3.05,10.79,10.79,0,0,1,3.2,4.48,20.24,20.24,0,0,1,.9,6.56,18,18,0,0,0-6.27,2.69,15.83,15.83,0,0,0-5.6,7.1l.18.06c1.67-1.91,3.58-2.46,5.25-3.17a20.09,20.09,0,0,1,6.46-1.35v12.28h9.7V148.1a24.86,24.86,0,0,1,4.67.9,39.38,39.38,0,0,1,5.54,2.19l8.06-8.2V123.88a21.83,21.83,0,0,0-.67-6.18,13,13,0,0,0-2.75-4.48,49.39,49.39,0,0,0-7.6-6.39l-7.21,5.43V106.8H269v6.26Zm0,43V117.1l3.12-2.4v43.85Zm-8.06-31.05a17.28,17.28,0,0,0-3-1.91l5.68-4.32v8.89a19.59,19.59,0,0,0-2.65-2.66Zm25.42,0V132h-13v-4.53Zm0,6v12.92a39.27,39.27,0,0,0-7-3.1,23.53,23.53,0,0,0-6.06-1v-8.77Z" transform="translate(-56.69 -105.73)"/><path class="cls-1" d="M301.11,125.68c.87.35,2.37,1.08,4.47,2.19v18.6l-6.77-3.14V125A11.55,11.55,0,0,1,301.11,125.68Zm.62-5.65a23.48,23.48,0,0,1-8.13,5.06v16a10.64,10.64,0,0,1-.36,3.37,4.63,4.63,0,0,1-1.25,1.69l.26.59a12.56,12.56,0,0,1,4.23.9,33.81,33.81,0,0,1,6.27,3.57,14.26,14.26,0,0,1,2.54-2.1,46.18,46.18,0,0,1,5.63-2.92V124.3A27.08,27.08,0,0,1,301.73,120Z" transform="translate(-56.69 -105.73)"/><path class="cls-1" d="M326.94,127.05a10,10,0,0,0,3-.56L324.29,135l-3.58-2.08v-8.25A9.87,9.87,0,0,0,326.94,127.05Zm8.22-6.43a6.72,6.72,0,0,0,.47-2.46,3.16,3.16,0,0,0-.59-2,1.69,1.69,0,0,0-1.31-.75,1.24,1.24,0,0,0-1,.55,2.18,2.18,0,0,0-.44,1.44,2.91,2.91,0,0,0,1,2,1.53,1.53,0,0,1,.53,1A2,2,0,0,1,333,122a3.23,3.23,0,0,1-2.26.71,9.27,9.27,0,0,1-2.77-.44,41.27,41.27,0,0,1-5.37-2.22,14.08,14.08,0,0,1-2.93,3.18,15.4,15.4,0,0,1-4.22,2.09v10.9l5.68,3.46-3.35,5-2.33,3.3c-.5.67-.9,1.12-1.07,1.35a1.68,1.68,0,0,0-.54.9,1,1,0,0,0,.28.64.83.83,0,0,0,.58.32,2,2,0,0,0,1-.61,6.37,6.37,0,0,1,4.34-1.67,9.24,9.24,0,0,1,3,.5,15.48,15.48,0,0,1,3.33,1.79,18,18,0,0,1,4-3.27,10.42,10.42,0,0,1,4-1.2V134.42l-6-3.58,5-7.16A16.09,16.09,0,0,0,335.16,120.62Zm-6.05,25.76a11,11,0,0,0-6.2-2.23,9,9,0,0,0-1.79.21A14.36,14.36,0,0,0,319,145l6.27-9.44,3.86,2.34Z" transform="translate(-56.69 -105.73)"/><path class="cls-1" d="M337.43,124.53V123.3l7.87-11h.13l-.27,9h5.21v3.3h-5.21v19.68l2.91,2.43,1.66-1.46.64.9-5.7,5.14a15,15,0,0,0-6.64-4.56v-.58a4.2,4.2,0,0,0,1.37-1.64,8.54,8.54,0,0,0,.44-3.13V124.53Z" transform="translate(-56.69 -105.73)"/></svg>